<?xml version="1.0" encoding="iso-8859-1"?>
<!-- Generator: Adobe Illustrator 19.0.0, SVG Export Plug-In . SVG Version: 6.00 Build 0)  -->
<svg version="1.1" id="Layer_1" xmlns="http://www.w3.org/2000/svg" xmlns:xlink="http://www.w3.org/1999/xlink" x="0px" y="0px"
	 viewBox="0 0 512 512" style="enable-background:new 0 0 512 512;" xml:space="preserve">
<path style="fill:#939598;" d="M476.494,63.287c-12.096,0-21.903,9.807-21.903,21.903v88.517h-233.65
	c51.277-100.854,44.131-98.256,131.435-98.256c12.096,0,21.903-9.807,21.903-21.903s-9.807-21.903-21.903-21.903
	c-39.055,0-104.396-7.779-138.652,59.6L15.986,480.166c-5.483,10.782-1.184,23.968,9.598,29.451
	c10.775,5.479,23.965,1.19,29.451-9.598l21.35-41.993h378.207v32.066c0,12.096,9.807,21.903,21.903,21.903
	c12.096,0,21.903-9.807,21.903-21.903V85.19C498.397,73.094,488.591,63.287,476.494,63.287z M98.657,414.22l100.011-196.707h255.923
	V414.22H98.657z"/>
<g>
	<path style="fill:#808285;" d="M255.996,105.528c22.633-35.501,56.266-30.077,96.378-30.077c12.096,0,21.903-9.807,21.903-21.903
		s-9.807-21.903-21.903-21.903c-42.723,0-65.993-2.941-96.378,14.747V105.528z"/>
	<path style="fill:#808285;" d="M476.494,63.287c-12.096,0-21.903,9.807-21.903,21.903v88.517H255.996v43.806H454.59V414.22H255.996
		v43.806H454.59v32.066c0,12.096,9.807,21.903,21.903,21.903s21.903-9.807,21.903-21.903V85.19
		C498.397,73.094,488.591,63.287,476.494,63.287z"/>
</g>
<path style="fill:#51B3DA;" d="M476.494,107.092H352.376c-12.096,0-21.903-9.807-21.903-21.903V21.903
	C330.473,9.807,340.28,0,352.376,0h124.118c12.096,0,21.903,9.807,21.903,21.903v63.286
	C498.397,97.285,488.591,107.092,476.494,107.092z"/>
<g>
</g>
<g>
</g>
<g>
</g>
<g>
</g>
<g>
</g>
<g>
</g>
<g>
</g>
<g>
</g>
<g>
</g>
<g>
</g>
<g>
</g>
<g>
</g>
<g>
</g>
<g>
</g>
<g>
</g>
</svg>
